<svg width="48" height="48" viewBox="0 0 48 48" fill="none" xmlns="http://www.w3.org/2000/svg">
<g clip-path="url(#clip0_330_413)">
<mask id="mask0_330_413" style="mask-type:alpha" maskUnits="userSpaceOnUse" x="0" y="0" width="48" height="48">
<circle cx="24" cy="24" r="24" fill="#E8EFFF"/>
</mask>
<g mask="url(#mask0_330_413)">
<circle cx="24" cy="24" r="24" fill="#E8EFFF"/>
<rect x="-13.7143" y="19.2" width="46.6286" height="32.9143" rx="5" fill="#A9BCE9"/>
<path d="M32.9143 26.7429H-13.7143V24.2C-13.7143 21.4386 -11.4757 19.2 -8.71426 19.2H27.9143C30.6757 19.2 32.9143 21.4386 32.9143 24.2V26.7429Z" fill="#8397CC"/>
<rect x="2.74283" y="28.8" width="7.54286" height="1.37143" rx="0.685714" fill="#8397CC"/>
<rect x="4.79999" y="32.2286" width="2.05714" height="1.37143" rx="0.685714" fill="white"/>
<rect x="8.22858" y="33.6" width="10.2857" height="1.37143" rx="0.685714" fill="#8397CC"/>
<rect x="12.3428" y="28.8" width="13.0286" height="1.37143" rx="0.685714" fill="white"/>
<rect x="4.79999" y="38.4" width="16.4571" height="1.37143" rx="0.685714" fill="white"/>
<rect x="22.6286" y="38.4" width="1.37143" height="1.37143" rx="0.685714" fill="#8397CC"/>
<rect x="25.3714" y="38.4" width="6.17143" height="1.37143" rx="0.685714" fill="#8397CC"/>
<rect x="14.4" y="43.2" width="8.22857" height="1.37143" rx="0.685714" fill="#8397CC"/>
<rect x="24" y="43.2" width="1.37143" height="1.37143" rx="0.685714" fill="white"/>
<circle cx="26.0571" cy="23.3143" r="1.37143" fill="white"/>
<circle cx="26.0571" cy="23.3143" r="1.37143" fill="white"/>
<circle cx="16.4572" cy="23.3143" r="1.37143" fill="white"/>
<circle cx="16.4572" cy="23.3143" r="1.37143" fill="white"/>
<circle cx="21.2572" cy="23.3143" r="1.37143" fill="white"/>
<circle cx="21.2572" cy="23.3143" r="1.37143" fill="white"/>
<circle cx="31.5428" cy="18.5143" r="10.9714" fill="#3D58FF"/>
<path d="M29.3141 19.7899V21.0699L24.6857 19.0978V18.0032L29.3141 16.0311V17.3202L26.0889 18.5415L29.3141 19.7899Z" fill="white"/>
<path d="M32.647 16.004L31.3588 21.2192C31.3158 21.3911 31.2775 21.5268 31.2438 21.6263C31.2131 21.7258 31.164 21.8027 31.0965 21.857C31.0321 21.9143 30.937 21.9429 30.8113 21.9429C30.4984 21.9429 30.342 21.8102 30.342 21.5449C30.342 21.4755 30.3727 21.3021 30.434 21.0247L31.7176 15.8095C31.7851 15.532 31.8495 15.3421 31.9109 15.2395C31.9722 15.137 32.0918 15.0858 32.2698 15.0858C32.4231 15.0858 32.5397 15.1219 32.6194 15.1943C32.7022 15.2667 32.7436 15.3662 32.7436 15.4928C32.7436 15.5863 32.7114 15.7567 32.647 16.004Z" fill="white"/>
<path d="M38.4 19.0978L33.7715 21.079V19.7989L37.0059 18.5505L33.7715 17.3202V16.0492L38.4 18.0123V19.0978Z" fill="white"/>
<circle cx="30.5143" cy="21.6" r="11.1643" stroke="white" stroke-width="0.3"/>
</g>
</g>
<defs>
<clipPath id="clip0_330_413">
<rect width="48" height="48" fill="white"/>
</clipPath>
</defs>
</svg>
