<svg width="48" height="48" viewBox="0 0 48 48" fill="none" xmlns="http://www.w3.org/2000/svg">
<g clip-path="url(#clip0_330_412)">
<mask id="mask0_330_412" style="mask-type:alpha" maskUnits="userSpaceOnUse" x="0" y="0" width="48" height="48">
<circle cx="24" cy="24" r="24" fill="#E8EFFF"/>
</mask>
<g mask="url(#mask0_330_412)">
<circle cx="24" cy="24" r="24" fill="#E8EFFF"/>
<rect x="37.0286" y="29.4857" width="34.2857" height="10.9714" fill="#BACAF0"/>
<path d="M23.4929 10.9714C22.8592 11.0996 22.3078 11.5084 22.0055 12.0962L11.9183 31.7105C11.5742 32.3797 11.5699 33.1727 11.9068 33.8456L14.8563 39.7358C15.257 40.5359 16.076 41.0413 16.9719 41.0413H30.5574C31.4781 41.0413 32.3151 40.5079 32.7028 39.6741L35.4372 33.7934C35.7368 33.1491 35.73 32.4044 35.4188 31.7656L25.8559 12.1378C25.6104 11.6338 25.1833 11.2554 24.6755 11.0653L24.6755 29.8973C25.6957 30.1595 26.4495 31.0842 26.4495 32.1847C26.4495 33.4891 25.3905 34.5465 24.0842 34.5465C22.7779 34.5465 21.7189 33.4891 21.7189 32.1847C21.7189 31.0842 22.4727 30.1595 23.4929 29.8973L23.4929 10.9714Z" fill="#3D58FF"/>
<path d="M14.0318 44.584C14.0318 43.2796 15.0907 42.2222 16.3971 42.2222H31.7714C33.0777 42.2222 34.1367 43.2796 34.1367 44.584C34.1367 45.8884 33.0777 46.9458 31.7714 46.9458L16.3971 46.9458C15.0907 46.9458 14.0318 45.8884 14.0318 44.584Z" fill="#3D58FF"/>
<path d="M18.1397 50.4382C18.1397 49.1339 19.1987 48.0765 20.505 48.0765L28.1922 48.0765C29.4985 48.0765 30.5574 49.1339 30.5574 50.4382C30.5574 51.7426 29.4985 52.8 28.1922 52.8L20.505 52.8C19.1987 52.8 18.1397 51.7426 18.1397 50.4382Z" fill="#3D58FF"/>
<path d="M22.1389 16.2791C22.3911 15.7887 22.8297 15.4321 23.3429 15.2778L23.3429 33.8981C22.3158 34.214 21.5689 35.1691 21.5689 36.2989C21.5689 37.6864 22.6953 38.8107 24.0842 38.8107C25.4732 38.8107 26.5995 37.6864 26.5995 36.2989C26.5995 35.1691 25.8527 34.214 24.8255 33.8981L24.8255 15.4089C25.2083 15.6026 25.5262 15.9177 25.7211 16.3177L35.284 35.9456C35.5754 36.5437 35.5817 37.2411 35.3012 37.8444L32.5668 43.7252C32.2037 44.506 31.4198 45.0056 30.5574 45.0056H16.9719C16.1327 45.0056 15.3656 44.5322 14.9904 43.7829L12.041 37.8927C11.7254 37.2626 11.7294 36.5201 12.0517 35.8934L22.1389 16.2791ZM14.1818 48.6983C14.1818 47.4769 15.1734 46.4865 16.3971 46.4865H31.7714C32.9951 46.4865 33.9867 47.4769 33.9867 48.6983C33.9867 49.9196 32.9951 50.91 31.7714 50.91L16.3971 50.91C15.1734 50.91 14.1818 49.9196 14.1818 48.6983ZM18.2897 54.5525C18.2897 53.3312 19.2813 52.3407 20.505 52.3407L28.1922 52.3407C29.4158 52.3407 30.4074 53.3312 30.4074 54.5525C30.4074 55.7738 29.4158 56.7643 28.1922 56.7643L20.505 56.7643C19.2813 56.7643 18.2897 55.7738 18.2897 54.5525Z" stroke="white" stroke-width="0.3"/>
<circle cx="45.2571" cy="27.4286" r="4.48571" stroke="#47BB8E" stroke-width="2"/>
<path d="M10.5215 23.2562L-1.87257 17.6997L9.13651 9.74441L10.5215 23.2562Z" fill="#ECAE00"/>
<mask id="mask1_330_412" style="mask-type:alpha" maskUnits="userSpaceOnUse" x="-2" y="9" width="13" height="15">
<path d="M10.5215 23.2562L-1.87257 17.6997L9.13651 9.74441L10.5215 23.2562Z" fill="#ECAE00"/>
</mask>
<g mask="url(#mask1_330_412)">
<path d="M3.97083 21.408L9.20118 9.74145L11.1973 24.3883L3.97083 21.408Z" fill="#EC9216"/>
</g>
<circle cx="40.8" cy="3.0857" r="1.02857" fill="#BACAF0"/>
<circle cx="40.8" cy="12.6857" r="1.02857" fill="#BACAF0"/>
<circle cx="40.8" cy="7.88569" r="1.02857" fill="#3D58FF"/>
<circle cx="29.8286" cy="3.0857" r="1.02857" fill="#BACAF0"/>
<circle cx="29.8286" cy="12.6857" r="1.02857" fill="#ECAE00"/>
<circle cx="29.8286" cy="7.88569" r="1.02857" fill="#BACAF0"/>
<circle cx="35.3143" cy="3.0857" r="1.02857" fill="#BACAF0"/>
<circle cx="35.3143" cy="12.6857" r="1.02857" fill="#BACAF0"/>
<circle cx="35.3143" cy="7.88569" r="1.02857" fill="#BACAF0"/>
</g>
</g>
<defs>
<clipPath id="clip0_330_412">
<rect width="48" height="48" fill="white"/>
</clipPath>
</defs>
</svg>
